<?xml version="1.0" encoding="UTF-8"?>
<svg version="1.1" xmlns="http://www.w3.org/2000/svg" width="2039" height="674">
<path d="M0 0 C7.62281306 8.4939917 7.54663317 20.11515868 8.66088867 30.8996582 C8.87068074 32.82467041 9.0817517 34.74954363 9.2940321 36.67428303 C9.8374423 41.63438375 10.36319008 46.5961829 10.88392973 51.55870867 C11.35241961 56.00145139 11.8355668 60.44258396 12.3175354 64.88388062 C13.34227423 74.36285714 14.33830968 83.84474747 15.32919335 93.32731414 C15.81854452 98.00512254 16.31071776 102.68263418 16.80253601 107.36018372 C17.72508754 116.13817106 18.64526075 124.91640585 19.56448191 133.6947425 C20.61464503 143.72235365 21.66760816 153.74967023 22.72075522 163.77696836 C24.87935536 184.33016276 27.03460593 204.88370717 29.1875 225.4375 C30.55324871 220.21447224 31.64734335 215.06983117 32.46850586 209.72729492 C32.58102188 209.00252457 32.6935379 208.27775421 32.8094635 207.53102112 C33.05110474 205.9719222 33.29111068 204.4125691 33.5296154 202.85298729 C33.90899025 200.37454746 34.2934798 197.89694837 34.67933655 195.41950989 C35.77479915 188.38031169 36.86153987 181.33977848 37.9440918 174.29858398 C38.60892278 169.97670962 39.27994631 165.65583139 39.95456123 161.33547401 C40.20848748 159.70098921 40.46005379 158.06613578 40.70908928 156.43089867 C44.78969782 129.64152481 44.78969782 129.64152481 52.1875 123.4375 C56.8503372 120.52199969 61.86700667 120.81201385 67.1875 121.4375 C72.47613926 124.03374109 76.09063722 127.63252146 78.24958324 133.15353775 C79.26000931 136.6913795 79.65490277 139.93873045 79.94416809 143.605896 C80.02873585 144.64058698 80.02873585 144.64058698 80.11501205 145.69618082 C80.29869175 147.96848087 80.47140441 150.24146654 80.64379883 152.51464844 C80.77164976 154.12999462 80.90003869 155.7452983 81.02893543 157.36056137 C81.42680602 162.38533748 81.80862135 167.41126111 82.1875 172.4375 C82.24607791 173.21028101 82.30465583 173.98306202 82.36500883 174.77926064 C83.17330218 185.44464168 83.94848071 196.11229924 84.71290183 206.78090382 C85.01170317 210.94484212 85.31286007 215.10861019 85.61372375 219.2723999 C86.17833125 227.09093234 86.74094469 234.9096068 87.30276567 242.72833991 C87.9445006 251.657779 88.58857438 260.58704896 89.23280466 269.51630831 C90.55356327 287.82319061 91.87151462 306.13027398 93.1875 324.4375 C93.3242385 323.56704072 93.460977 322.69658144 93.60185909 321.79974461 C93.90118411 319.89428155 94.20050941 317.98881853 94.49983943 316.08335626 C95.08007282 312.38971631 95.66027747 308.69607184 96.24043179 305.00241947 C97.2555082 298.53992382 98.27059575 292.07743044 99.28738403 285.61520386 C103.15164628 261.05290978 106.95311976 236.48147622 110.70301461 211.90149617 C111.56259809 206.26833592 112.42443272 200.63552351 113.28771973 195.00292969 C113.41021867 194.20363847 113.5327176 193.40434726 113.65892863 192.5808351 C114.15498181 189.34452428 114.6511214 186.10822675 115.14753771 182.87197161 C116.63636991 173.16577214 118.11787782 163.45852228 119.58757991 153.74940711 C120.52675812 147.54937761 121.47479278 141.35074094 122.42936116 135.15306252 C122.98790694 131.52451106 123.54235028 127.89544977 124.08621025 124.2646656 C124.68446562 120.27129077 125.30152671 116.28103933 125.92016602 112.29077148 C126.09110338 111.12915182 126.26204075 109.96753216 126.43815804 108.7707119 C127.8598398 99.76345629 129.59175101 90.26679573 137.1875 84.4375 C142.72988467 81.23997038 147.11430673 80.81945946 153.1875 82.4375 C158.04464309 84.91189365 160.72058447 87.588735 163.1875 92.4375 C165.77740373 101.56586385 167.10394345 110.91303973 168.34814453 120.29980469 C168.54347485 121.7385773 168.73935305 123.17727562 168.93572998 124.61590576 C169.35332425 127.68348715 169.76719199 130.75153853 170.17804337 133.82003021 C170.82747933 138.66973051 171.48588369 143.51818841 172.14547729 148.36651611 C173.42296951 157.76572164 174.69146937 167.16612974 175.95901489 176.56668091 C177.57882163 188.57629695 179.20284285 200.58533824 180.83476341 212.59331441 C181.49002301 217.41705473 182.14088833 222.24136187 182.78834176 227.06615591 C183.19004559 230.05365657 183.59518175 233.04068439 184.00124359 236.02759552 C184.18938055 237.4170089 184.3760434 238.80662277 184.56116104 240.19644165 C184.81296181 242.08548002 185.07039073 243.9737657 185.32815552 245.86199951 C185.47082415 246.92084728 185.61349277 247.97969505 185.7604847 249.07062912 C185.94590661 251.38601585 185.94590661 251.38601585 187.1875 252.4375 C187.34148254 251.81855362 187.49546509 251.19960724 187.65411377 250.56190491 C189.26686777 244.08621599 190.89114722 237.61349488 192.52197266 231.14233398 C193.12808958 228.7309584 193.73132177 226.31885572 194.33154297 223.90600586 C195.19771338 220.42624165 196.07442553 216.94927497 196.953125 213.47265625 C197.21683899 212.40354507 197.48055298 211.3344339 197.7522583 210.23292542 C200.29344493 200.25871375 203.13551486 190.86578181 211.75 184.5625 C217.58533032 182.65275553 223.68385005 182.2466042 229.56640625 184.24609375 C237.1824023 188.42260771 239.7257377 195.49448567 242.05688477 203.43481445 C244.48936255 212.12411855 246.54953132 220.91660225 248.57617188 229.70800781 C248.77275391 230.55717773 248.96933594 231.40634766 249.171875 232.28125 C249.34428711 233.03599609 249.51669922 233.79074219 249.69433594 234.56835938 C250.13849052 236.50967598 250.13849052 236.50967598 251.1875 238.4375 C251.56261719 237.71304688 251.93773437 236.98859375 252.32421875 236.2421875 C260.22545154 221.31542531 271.62181552 211.65844277 287.94238281 206.58032227 C299.72657681 203.65112438 311.49920487 204.10539325 323.5625 204.25 C325.76301164 204.26507866 327.96353332 204.27876142 330.1640625 204.29101562 C335.50543056 204.32375813 340.84641722 204.37370328 346.1875 204.4375 C346.18160858 203.5358033 346.18160858 203.5358033 346.17559814 202.6158905 C346.15989877 199.86242269 346.15021628 197.10896434 346.140625 194.35546875 C346.13434082 193.40990112 346.12805664 192.4643335 346.12158203 191.4901123 C346.08310547 176.750382 348.34602344 164.45609338 358.84375 153.56640625 C370.70258849 142.79462795 390.06651225 143.09384119 405.1875 143.4375 C409.1475 143.7675 413.1075 144.0975 417.1875 144.4375 C417.1875 156.3175 417.1875 168.1975 417.1875 180.4375 C411.5775 180.4375 405.9675 180.4375 400.1875 180.4375 C393.99403619 183.22134065 393.99403619 183.22134065 391.1875 188.4375 C390.71928201 191.37554992 390.58784259 194.2789873 390.5 197.25 C390.396875 199.951875 390.29375 202.65375 390.1875 205.4375 C399.4275 205.4375 408.6675 205.4375 418.1875 205.4375 C418.1875 215.6675 418.1875 225.8975 418.1875 236.4375 C408.9475 236.4375 399.7075 236.4375 390.1875 236.4375 C390.1875 279.6675 390.1875 322.8975 390.1875 367.4375 C375.9975 367.4375 361.8075 367.4375 347.1875 367.4375 C347.1875 324.2075 347.1875 280.9775 347.1875 236.4375 C302.77953307 233.7472351 302.77953307 233.7472351 287.1875 242.4375 C281.76789512 248.37884783 278.57137959 255.2826141 275.125 262.5 C265.19875239 283.20404271 265.19875239 283.20404271 255.2421875 287.22265625 C249.20288414 289.01076372 244.08516823 288.44281347 238.125 286.375 C226.49490072 278.70408345 224.14038617 266.25571041 221.1875 253.4375 C219.32428628 256.78096586 218.4029912 260.08503783 217.47924805 263.79150391 C217.32117676 264.41976074 217.16310547 265.04801758 217.00024414 265.6953125 C216.65839889 267.0556212 216.31856794 268.41643734 215.98053551 269.77769852 C215.4424545 271.94126077 214.89741498 274.10295839 214.35029602 276.26425171 C212.79575242 282.40842385 211.24981528 288.55470573 209.71801758 294.70458984 C208.77900277 298.47244237 207.82853365 302.23725627 206.87110329 306.00046921 C206.51084411 307.42573229 206.15481747 308.85207293 205.80335045 310.27952957 C200.20415479 333.00500368 200.20415479 333.00500368 190.1875 339.4375 C185.0582896 341.1472368 180.12602784 341.08367595 175 339.375 C167.34038017 334.09837301 164.386046 327.62418275 162.64463234 318.63531303 C162.14900167 315.43907646 161.7079596 312.23980652 161.28637695 309.03295898 C161.12012817 307.822202 160.95387939 306.61144501 160.78259277 305.36399841 C160.33228819 302.07203212 159.88965816 298.77921006 159.45052361 295.4857471 C158.98834947 292.0335958 158.51623552 288.58280408 158.04521179 285.1318512 C157.15648361 278.60946052 156.27659376 272.08590998 155.39993876 265.56188685 C154.40074067 258.12920034 153.39159674 250.69787479 152.38164961 243.26664245 C150.3059279 227.99174047 148.24259068 212.71519223 146.1875 197.4375 C143.5938846 210.58852336 141.52191208 223.80178437 139.49804688 237.05053711 C139.13819216 239.39298239 138.77808264 241.73538854 138.41773987 244.07775879 C137.64703847 249.09026915 136.87783965 254.1030069 136.10975647 259.11591911 C134.89427657 267.04681865 133.67365768 274.97692204 132.45202637 282.90687561 C132.0326958 285.62930936 131.61340001 288.35174847 131.19411469 291.07418919 C131.03702638 292.09415711 131.03702638 292.09415711 130.87676457 293.13473044 C129.68956238 300.84366881 128.50346574 308.55277714 127.31787109 316.26196289 C127.20970178 316.965311 127.10153247 317.66865911 126.9900853 318.39332081 C125.23361143 329.81534497 123.48117997 341.23798671 121.72975177 352.66078549 C119.92624442 364.42226278 118.11668734 376.18279916 116.30197382 387.94255263 C115.08630997 395.8219486 113.87776344 403.70240558 112.67414093 411.58365142 C111.92405275 416.48397511 111.16736572 421.38326271 110.40879631 426.28227997 C110.05897403 428.55018126 109.71184268 430.81849954 109.36763191 433.08725929 C108.89661298 436.18918375 108.41586483 439.28945261 107.93273926 442.38951111 C107.79955905 443.28231826 107.66637885 444.17512542 107.52916288 445.09498733 C106.21079376 453.426772 104.63215568 461.55324916 98.1875 467.4375 C92.84203511 470.37022587 88.11801019 470.9793354 82.26171875 469.29296875 C77.60178179 467.37107385 74.8904652 464.84070293 72.59252834 460.25374508 C71.04603537 456.44691448 70.46829117 452.6363335 70.08204651 448.56507874 C70.00395801 447.82712824 69.92586951 447.08917774 69.8454147 446.32886511 C69.02640961 438.36432473 68.43315869 430.3825133 67.87475586 422.39624023 C67.75819711 420.77124133 67.64128868 419.14626747 67.52406311 417.52131653 C67.27521226 414.0617299 67.02875114 410.60198495 66.78425407 407.14208794 C66.39716402 401.66483526 66.0044183 396.1879965 65.61097717 390.7111969 C64.98953611 382.05167169 64.37165931 373.39189669 63.75541264 364.73200041 C62.6506407 349.20713096 61.54199349 333.68253948 60.42864329 318.15828282 C60.03872156 312.71891712 59.65110187 307.27939379 59.26535976 301.83973014 C59.02514745 298.4577316 58.78320678 295.07585823 58.54083824 291.6940136 C58.429237 290.13161998 58.31836522 288.56917405 58.20829391 287.00667191 C57.4509879 276.19705372 57.4509879 276.19705372 56.1875 265.4375 C56.056353 266.27973114 55.92520599 267.12196228 55.79008484 267.98971558 C54.54712452 275.96385798 53.29740735 283.93690654 52.04027081 291.90882683 C51.39434708 296.00636171 50.75095566 300.10425954 50.11352539 304.203125 C49.49717837 308.16578554 48.8739526 312.12731049 48.2461338 316.0881691 C48.00892491 317.59228926 47.77411142 319.0967894 47.54184532 320.60168076 C43.92340219 344.01489558 43.92340219 344.01489558 37.1875 350.4375 C32.34461295 353.73946844 27.8775803 354.17434493 22.1875 353.4375 C17.01235918 351.6461051 14.36170802 348.84612225 11.1875 344.4375 C9.41348983 340.67148857 8.74792037 337.21246409 8.26165771 333.08961487 C8.03248343 331.18087412 8.03248343 331.18087412 7.79867935 329.23357296 C7.63856956 327.83617284 7.47879935 326.43873379 7.31933594 325.04125977 C7.14629809 323.56649063 6.97292898 322.09176033 6.79925156 320.61706638 C4.843998 303.88631825 3.09206364 287.13291533 1.34912968 270.37898707 C0.88534434 265.92665052 0.41840202 261.47464489 -0.04815674 257.02259827 C-0.92494938 248.65158652 -1.79904244 240.28029535 -2.67208028 231.90889126 C-3.66877884 222.35306286 -4.66861697 212.7975637 -5.66867399 203.24208629 C-7.72002455 183.64091308 -9.7675782 164.03934488 -11.8125 144.4375 C-16.79726229 183.426077 -21.51184692 222.4458791 -26.15669489 261.47625732 C-26.61407355 265.31915692 -27.07171682 269.16202491 -27.52944565 273.00488281 C-30.45965611 297.60604417 -33.38649302 322.20760262 -36.30467711 346.8101933 C-37.64006546 358.06769135 -38.97968428 369.32467989 -40.32267445 380.58127403 C-41.21426749 388.05612945 -42.10123196 395.53151385 -42.98460257 403.0073452 C-43.53304397 407.63884975 -44.08603345 412.26980302 -44.64028358 416.90061569 C-44.89409402 419.02875034 -45.14608912 421.15710249 -45.39603806 423.28569412 C-49.90040886 461.61447828 -49.90040886 461.61447828 -58.1875 468.375 C-64.09261401 470.7651652 -68.78151642 470.81490001 -74.66796875 468.55859375 C-79.23363226 466.17180791 -81.94307697 462.94227585 -83.63622856 458.06436825 C-85.95560745 448.79250939 -87.15832733 439.45645444 -88.34033203 429.98852539 C-88.57497826 428.15244701 -88.81026642 426.31645057 -89.04614258 424.48052979 C-89.68047991 419.52937799 -90.30603589 414.57715244 -90.93004847 409.62469029 C-91.58614342 404.43069975 -92.25075122 399.23779892 -92.91452026 394.04478455 C-94.16903634 384.22037802 -95.41652557 374.39509359 -96.66119754 364.56943554 C-98.48985853 350.13573685 -100.32778983 335.70321793 -102.16734123 321.27090359 C-102.30230763 320.2120047 -102.43727402 319.1531058 -102.5763303 318.06211907 C-102.84540762 315.95109679 -103.11450782 313.84007743 -103.38363159 311.72906107 C-104.17103775 305.55057275 -104.95592161 299.37177058 -105.73862863 293.19268525 C-106.22496214 289.35519177 -106.71266484 285.51787307 -107.20063782 281.68058777 C-107.42661754 279.90088302 -107.65197278 278.12109886 -107.87665939 276.34123039 C-108.18324929 273.91303297 -108.49201792 271.48512198 -108.80130005 269.05726624 C-108.88972361 268.35240855 -108.97814717 267.64755086 -109.06925023 266.92133385 C-109.52107566 263.3930017 -110.06192298 259.91504394 -110.8125 256.4375 C-110.97679001 257.28639297 -111.14108002 258.13528595 -111.31034851 259.00990295 C-112.86602458 267.03150751 -114.43846636 275.04960536 -116.02955914 283.06426334 C-116.84686376 287.18425745 -117.6577589 291.30529466 -118.45385742 295.42944336 C-119.22319596 299.41367837 -120.00956307 303.39421162 -120.80756569 307.37280083 C-121.10820012 308.88695511 -121.40280616 310.40231991 -121.6911068 311.91887093 C-124.95125853 329.02201697 -124.95125853 329.02201697 -131.76953125 333.8125 C-136.9091602 335.54374344 -140.50174596 335.72235985 -145.8125 334.4375 C-151.74628954 331.1907095 -154.52905824 327.56108247 -157.02734375 321.390625 C-157.67123047 319.81583374 -157.67123047 319.81583374 -158.328125 318.20922852 C-158.79734375 317.04705811 -159.2665625 315.8848877 -159.75 314.6875 C-160.25569351 313.45010529 -160.76223356 312.21305627 -161.26953125 310.97631836 C-162.43265555 308.14039269 -163.59366791 305.30361581 -164.75341797 302.46630859 C-168.46756722 293.38852387 -172.20831396 284.32178072 -175.96340942 275.26086426 C-176.86041087 273.09273708 -177.75485541 270.92355023 -178.646698 268.7532959 C-179.91476975 265.66767137 -181.19090497 262.58549385 -182.46875 259.50390625 C-182.84753799 258.57685379 -183.22632599 257.64980133 -183.61659241 256.69465637 C-187.4152765 247.50399561 -187.4152765 247.50399561 -194.375 240.625 C-194.95378906 240.22667969 -195.53257812 239.82835937 -196.12890625 239.41796875 C-199.46855737 237.47306752 -202.30230166 237.30568228 -206.07495117 237.27978516 C-207.1500444 237.26952301 -208.22513763 237.25926086 -209.33280945 237.24868774 C-210.49528702 237.24138641 -211.65776459 237.23408508 -212.85546875 237.2265625 C-215.31576178 237.19848672 -217.77604815 237.16982221 -220.23632812 237.140625 C-224.11596439 237.09941751 -227.99547726 237.06253077 -231.87524414 237.03613281 C-235.61891416 237.00844965 -239.36201823 236.96256859 -243.10546875 236.9140625 C-244.25782516 236.91080963 -245.41018158 236.90755676 -246.59745789 236.90420532 C-260.14270814 236.69849774 -260.14270814 236.69849774 -265.45256042 231.98013306 C-268.67763328 228.47002347 -269.19499539 225.05511994 -269.375 220.375 C-269.14772479 215.32443985 -268.38927738 212.2076167 -264.8125 208.4375 C-260.20974405 205.10050194 -256.28107634 204.31603707 -250.68359375 204.29223633 C-249.66152832 204.28585648 -248.63946289 204.27947662 -247.58642578 204.27290344 C-246.48540527 204.27179062 -245.38438477 204.2706778 -244.25 204.26953125 C-243.10772949 204.26620285 -241.96545898 204.26287445 -240.78857422 204.25944519 C-238.36767987 204.25438103 -235.94677854 204.25203671 -233.52587891 204.25219727 C-229.85437181 204.25002478 -226.18317213 204.23190219 -222.51171875 204.21289062 C-220.15364685 204.20995366 -217.79557354 204.20797089 -215.4375 204.20703125 C-214.35267334 204.19984573 -213.26784668 204.19266022 -212.15014648 204.18525696 C-201.83796939 204.21555131 -191.90625566 205.114715 -182.6875 210 C-182.01082275 210.35151123 -181.33414551 210.70302246 -180.63696289 211.06518555 C-164.7599126 219.64844959 -157.79809835 233.47406409 -151.375 249.625 C-150.82977117 250.97240831 -150.28355234 252.31941646 -149.73632812 253.66601562 C-148.41517551 256.91792984 -147.1128646 260.1772203 -145.8125 263.4375 C-143.13257169 253.12853336 -140.7810654 242.79950878 -138.73390198 232.34697342 C-138.26661818 229.96446008 -137.79321771 227.58323028 -137.3182373 225.20223999 C-135.97116879 218.44627709 -134.63152211 211.6888783 -133.30322266 204.92919922 C-132.48339577 200.75937106 -131.65409769 196.59151691 -130.81898499 192.42472458 C-130.50607927 190.85394944 -130.1966904 189.28246898 -129.89109802 187.71025467 C-125.37395196 164.48339841 -125.37395196 164.48339841 -117.8125 157.4375 C-112.97691691 154.5531171 -108.43303938 153.95350024 -102.9140625 154.8828125 C-98.6641676 156.00453197 -96.06075701 157.74826331 -93.44140625 161.29296875 C-84.23182266 177.1706188 -84.96834024 201.08287762 -82.67166543 219.14809656 C-82.14964981 223.24828924 -81.62369535 227.34797674 -81.09819031 231.44772339 C-80.10745168 239.18162356 -79.12016496 246.91596013 -78.13417357 254.6504668 C-77.00988256 263.46847733 -75.88165911 272.28598338 -74.75313437 281.10345292 C-72.43526888 299.21425141 -70.12264629 317.32571539 -67.8125 335.4375 C-65.18186501 315.31230284 -62.66491145 295.1771464 -60.26904297 275.02246094 C-59.93703398 272.23770544 -59.60456108 269.45300537 -59.27209473 266.66830444 C-58.56520886 260.74578784 -57.85930512 254.82315491 -57.15404892 248.90044403 C-56.03786074 239.527318 -54.91878813 230.15453731 -53.79934692 220.78179932 C-53.41411019 217.55601348 -53.02889666 214.33022487 -52.64369392 211.10443497 C-52.49944771 209.89647971 -52.49944771 209.89647971 -52.35228743 208.66412131 C-51.26572746 199.5645572 -50.17986906 190.46490939 -49.09423828 181.36523438 C-48.99534401 180.53631574 -48.89644973 179.70739711 -48.79455866 178.85335973 C-47.18488218 165.36078757 -45.5767373 151.86803312 -43.96887968 138.37524411 C-42.31008345 124.45555295 -40.64868186 110.53617427 -38.98511612 96.61705232 C-37.96292598 88.06348888 -36.94288663 79.50967451 -35.92567398 70.95551768 C-35.22994932 65.10636771 -34.53176887 59.25751418 -33.83167706 53.40888533 C-33.42867609 50.04151391 -33.02713762 46.67398538 -32.62784195 43.30617142 C-32.19397638 39.64821112 -31.75592575 35.99077478 -31.31686401 32.33343506 C-31.19312593 31.28159271 -31.06938785 30.22975036 -30.94190013 29.146034 C-28.11231711 5.74360141 -28.11231711 5.74360141 -19.8125 -1 C-12.94890071 -4.5747913 -6.70810768 -3.72672649 0 0 Z " fill="#FFFFFF" transform="translate(318.8125,103.5625)"/>
<path d="M0 0 C14.52 0 29.04 0 44 0 C44 72.93 44 145.86 44 221 C30.14 221 16.28 221 2 221 C1.67 214.73 1.34 208.46 1 202 C-0.918125 204.5059375 -0.918125 204.5059375 -2.875 207.0625 C-11.87844 218.02443477 -23.85106542 224.51738202 -38 226 C-58.2060783 227.27622564 -74.70027192 223.06632318 -90.37109375 209.5625 C-104.98081817 195.32181766 -114.14354558 175.2277105 -115.16113281 154.75878906 C-115.20725089 150.92240839 -115.24667349 147.08664558 -115.25 143.25 C-115.25067474 142.55503418 -115.25134949 141.86006836 -115.25204468 141.14404297 C-115.21274365 115.66816068 -110.14222708 92.67805949 -93 73 C-92.48050781 72.37351562 -91.96101563 71.74703125 -91.42578125 71.1015625 C-80.84255312 59.31872413 -63.87414113 53.68758946 -48.4921875 52.796875 C-30.8130408 52.56777159 -18.00255814 56.90003014 -4.99609375 68.94921875 C-3 71 -3 71 -1 74 C-0.67 49.58 -0.34 25.16 0 0 Z M-58 100 C-70.56071363 115.24812213 -71.26519212 134.12419968 -70 153 C-68.4382145 165.03311752 -63.64821551 176.35686632 -54 184 C-45.01191244 189.53760451 -35.27736753 190.53110648 -24.91796875 188.3515625 C-15.43666996 185.24859199 -9.06719627 179.53715324 -4.3203125 170.80859375 C3.38044169 154.42740362 3.84455573 133.25247917 -1.7421875 116.0625 C-5.83674386 106.09314537 -11.49379201 98.56485215 -21.25 93.625 C-33.58192848 88.73876419 -48.51649744 90.26133593 -58 100 Z " fill="#A81921" transform="translate(1945,250)"/>
<path d="M0 0 C1.10988281 0.36351562 2.21976563 0.72703125 3.36328125 1.1015625 C23.83685058 8.42198521 37.02920917 21.906258 46.42578125 41.26953125 C54.03863779 58.47942203 53 76.26395499 53 95 C14.06 95 -24.88 95 -65 95 C-63.17957643 107.88151377 -63.17957643 107.88151377 -58 119 C-57.60296875 119.59941406 -57.2059375 120.19882812 -56.796875 120.81640625 C-51.52766368 127.82687993 -43.01996452 132.26531922 -34.44140625 133.75390625 C-22.24303172 134.9835024 -12.61591561 133.64361098 -2.203125 127.0859375 C0.0538273 125.16539964 0.0538273 125.16539964 1.16098022 122.85844421 C4.63397203 116.47825275 4.63397203 116.47825275 8.27453613 115.20367432 C11.03319845 114.95862357 13.66339711 114.98630777 16.4296875 115.12109375 C17.42001984 115.13382828 18.41035217 115.14656281 19.43069458 115.15968323 C22.58133079 115.20990725 25.7261182 115.32277218 28.875 115.4375 C31.01554155 115.48266115 33.15617379 115.52372289 35.296875 115.56054688 C40.53323184 115.65955852 45.76619823 115.80996982 51 116 C49.53403012 129.26394481 43.32288598 138.6938818 34 148 C33.44828125 148.62261719 32.8965625 149.24523437 32.328125 149.88671875 C20.84994386 162.52976481 2.39622882 169.11583133 -14.35131836 170.22119141 C-18.11197635 170.34022361 -21.86246624 170.37995878 -25.625 170.375 C-26.28852478 170.37478851 -26.95204956 170.37457703 -27.63568115 170.37435913 C-38.06226845 170.34118748 -47.1875183 169.58532985 -57 166 C-58.03125 165.649375 -59.0625 165.29875 -60.125 164.9375 C-77.93128572 158.26014285 -93.29308224 146.00957468 -101.6875 128.8125 C-112.7400324 103.16916574 -112.85403023 68.50078489 -102.62158203 42.49804688 C-99.42470845 34.94017208 -95.30578673 28.28452409 -90 22 C-89.11248047 20.94425781 -89.11248047 20.94425781 -88.20703125 19.8671875 C-79.70822061 10.62541047 -67.83112882 3.92830449 -56 0 C-55.05125 -0.31839844 -54.1025 -0.63679688 -53.125 -0.96484375 C-36.90121024 -5.36554672 -15.99271315 -5.28160936 0 0 Z M-55 44 C-60.17423798 50.3266819 -64 57.66665844 -64 66 C-40.24 66 -16.48 66 8 66 C6.02825189 55.15538542 3.93364073 46.00563355 -5.26171875 39.3671875 C-20.97838235 29.40287091 -42.03968748 29.61860058 -55 44 Z " fill="#FFFFFF" transform="translate(1122,306)"/>
<path d="M0 0 C1.10988281 0.36351562 2.21976563 0.72703125 3.36328125 1.1015625 C23.83685058 8.42198521 37.02920917 21.906258 46.42578125 41.26953125 C54.03863779 58.47942203 53 76.26395499 53 95 C14.06 95 -24.88 95 -65 95 C-63.17957643 107.88151377 -63.17957643 107.88151377 -58 119 C-57.60296875 119.59941406 -57.2059375 120.19882812 -56.796875 120.81640625 C-51.52766368 127.82687993 -43.01996452 132.26531922 -34.44140625 133.75390625 C-22.24303172 134.9835024 -12.61591561 133.64361098 -2.203125 127.0859375 C0.0538273 125.16539964 0.0538273 125.16539964 1.16098022 122.85844421 C4.63397203 116.47825275 4.63397203 116.47825275 8.27453613 115.20367432 C11.03319845 114.95862357 13.66339711 114.98630777 16.4296875 115.12109375 C17.42001984 115.13382828 18.41035217 115.14656281 19.43069458 115.15968323 C22.58133079 115.20990725 25.7261182 115.32277218 28.875 115.4375 C31.01554155 115.48266115 33.15617379 115.52372289 35.296875 115.56054688 C40.53323184 115.65955852 45.76619823 115.80996982 51 116 C49.53403012 129.26394481 43.32288598 138.6938818 34 148 C33.44828125 148.62261719 32.8965625 149.24523437 32.328125 149.88671875 C20.84994386 162.52976481 2.39622882 169.11583133 -14.35131836 170.22119141 C-18.11197635 170.34022361 -21.86246624 170.37995878 -25.625 170.375 C-26.28852478 170.37478851 -26.95204956 170.37457703 -27.63568115 170.37435913 C-38.06226845 170.34118748 -47.1875183 169.58532985 -57 166 C-58.03125 165.649375 -59.0625 165.29875 -60.125 164.9375 C-77.93128572 158.26014285 -93.29308224 146.00957468 -101.6875 128.8125 C-112.73113467 103.15336203 -112.85681433 68.48472555 -102.62158203 42.49584961 C-99.4219631 34.93955067 -95.30576696 28.28450068 -90 22 C-89.11248047 20.94425781 -89.11248047 20.94425781 -88.20703125 19.8671875 C-79.70822061 10.62541047 -67.83112882 3.92830449 -56 0 C-55.05125 -0.31839844 -54.1025 -0.63679688 -53.125 -0.96484375 C-36.90121024 -5.36554672 -15.99271315 -5.28160936 0 0 Z M-55 44 C-60.17423798 50.3266819 -64 57.66665844 -64 66 C-40.24 66 -16.48 66 8 66 C6.02825189 55.15538542 3.93364073 46.00563355 -5.26171875 39.3671875 C-20.97838235 29.40287091 -42.03968748 29.61860058 -55 44 Z " fill="#FFFFFF" transform="translate(950,306)"/>
<path d="M0 0 C0.79664063 0.67417969 1.59328125 1.34835937 2.4140625 2.04296875 C3.10757812 2.62433594 3.80109375 3.20570313 4.515625 3.8046875 C15.0802768 13.50648925 22.0399541 26.55036698 26.4140625 40.04296875 C26.8265625 41.25339844 27.2390625 42.46382813 27.6640625 43.7109375 C34.78945084 67.07898602 32.0810019 95.20711632 21.4140625 117.04296875 C20.99640625 117.94015625 20.57875 118.83734375 20.1484375 119.76171875 C11.65606655 136.74646064 -1.96443686 148.18301716 -19.5859375 155.04296875 C-42.79153094 162.71820379 -72.91380482 162.00940819 -95.0859375 151.35546875 C-101.83713691 147.86380846 -107.32514535 143.55065728 -112.5859375 138.04296875 C-113.27945312 137.3571875 -113.97296875 136.67140625 -114.6875 135.96484375 C-132.84892313 117.03208604 -137.27316577 91.16494531 -136.83203125 65.9296875 C-136.05534666 41.76745503 -125.97086637 18.74344424 -108.5234375 1.91796875 C-80.54979328 -21.78525637 -28.79204662 -22.63445553 0 0 Z M-79.5859375 32.04296875 C-90.75963097 45.31659069 -92.74482086 63.30617034 -91.5859375 80.04296875 C-90.38081403 93.01504137 -86.49610081 106.78707268 -76.39453125 115.71875 C-68.2928698 121.65063603 -58.56091802 124.07317166 -48.5859375 123.04296875 C-38.65565098 121.33035412 -30.21425014 117.08511453 -23.92578125 109.0546875 C-13.60323625 93.55582255 -12.97755795 73.37627233 -15.8359375 55.53125 C-18.1075129 44.96605816 -22.14127471 34.85830456 -31.01171875 28.23046875 C-46.19761487 18.6442278 -66.41457951 19.07424704 -79.5859375 32.04296875 Z " fill="#A81920" transform="translate(1472.5859375,316.95703125)"/>
<path d="M0 0 C10.05815313 9.14223362 14.66807542 21.81898745 16.44140625 35.04296875 C16.44140625 36.69296875 16.44140625 38.34296875 16.44140625 40.04296875 C1.92140625 40.04296875 -12.59859375 40.04296875 -27.55859375 40.04296875 C-28.54859375 36.41296875 -29.53859375 32.78296875 -30.55859375 29.04296875 C-33.75149137 23.27119229 -39.35378364 21.42636948 -45.36328125 19.44921875 C-54.24269832 17.8060526 -65.39228835 17.97582841 -73.55859375 22.04296875 C-76.2304484 24.27860223 -78.01093556 25.94765238 -79.55859375 29.04296875 C-79.64960449 31.12295025 -79.64960449 31.12295025 -79.43359375 33.41796875 C-79.38976563 34.18882812 -79.3459375 34.9596875 -79.30078125 35.75390625 C-78.20020187 39.14832477 -76.55473357 40.14134519 -73.55859375 42.04296875 C-70.80560226 43.20746623 -67.9947415 44.0407448 -65.12109375 44.85546875 C-63.84443848 45.23058594 -63.84443848 45.23058594 -62.54199219 45.61328125 C-55.18243432 47.71527245 -47.74145844 49.41396579 -40.27722168 51.09851074 C-28.99774746 53.64508268 -18.12438304 56.25675651 -7.55859375 61.04296875 C-6.55441406 61.49027344 -5.55023437 61.93757813 -4.515625 62.3984375 C7.16592207 68.1505924 14.66418077 77.02057844 19.44140625 89.04296875 C22.83779224 100.64753826 21.56147067 116.25911625 16.44140625 127.04296875 C7.87028939 142.18889171 -4.85042346 150.86946425 -21.3918457 155.50732422 C-31.94495988 158.11617295 -42.31652782 158.44819444 -53.12109375 158.41796875 C-53.91817749 158.41676025 -54.71526123 158.41555176 -55.53649902 158.41430664 C-77.33051946 158.32457879 -98.17518268 155.33261774 -114.4453125 139.390625 C-125.61846925 126.97830115 -127.54047124 117.19701006 -129.55859375 100.04296875 C-114.70859375 100.04296875 -99.85859375 100.04296875 -84.55859375 100.04296875 C-83.56859375 103.67296875 -82.57859375 107.30296875 -81.55859375 111.04296875 C-79.09317775 116.3682673 -75.78928678 118.63527442 -70.5859375 121.00390625 C-58.11785503 125.28327391 -42.68257784 125.78263248 -30.55859375 120.19921875 C-27.61782509 118.49908687 -26.08576782 117.09731689 -24.55859375 114.04296875 C-23.88660453 110.15333702 -24.02975562 107.2257872 -25.65014648 103.6015625 C-28.10570975 100.30946795 -30.76608457 99.31889393 -34.52734375 98.04296875 C-35.58012512 97.66797241 -35.58012512 97.66797241 -36.6541748 97.28540039 C-45.29742528 94.30000643 -54.1769453 92.18258361 -63.05859375 90.04296875 C-109.22280918 78.9218754 -109.22280918 78.9218754 -119.93359375 61.8515625 C-126.17330431 49.0280397 -125.38160502 35.40170394 -121.55859375 22.04296875 C-116.59251364 8.68536052 -107.20731894 -1.48912505 -94.55859375 -7.95703125 C-65.67436578 -20.8979936 -25.82318635 -19.7517807 0 0 Z " fill="#A81920" transform="translate(1310.55859375,317.95703125)"/>
<path d="M0 0 C10.4179048 9.61383832 14.59170843 22.94617585 15.36413193 36.78254318 C15.62267749 45.13096617 15.54744644 53.48095399 15.49609375 61.83203125 C15.4888042 64.52344008 15.48607529 67.21484854 15.48323059 69.90626526 C15.47397331 76.22759203 15.44944696 82.54875979 15.41918212 88.87001711 C15.38543908 96.07697672 15.36910252 103.28394465 15.35409582 110.49096382 C15.32289027 125.29354691 15.26795919 140.09595999 15.203125 154.8984375 C0.353125 154.8984375 -14.496875 154.8984375 -29.796875 154.8984375 C-29.81145752 151.58304932 -29.82604004 148.26766113 -29.84106445 144.85180664 C-29.89145821 133.88342393 -29.95806196 122.91518246 -30.03258991 111.94693851 C-30.07726919 105.29853317 -30.11653089 98.65021794 -30.14331055 92.00170898 C-30.16936751 85.58252434 -30.20978758 79.1635745 -30.26006126 72.74453545 C-30.27671366 70.29863855 -30.28823804 67.85270105 -30.29448891 65.40675545 C-30.30414735 61.97412778 -30.33222898 58.54209862 -30.36450195 55.10961914 C-30.36306686 54.10404465 -30.36163177 53.09847015 -30.3601532 52.06242371 C-30.46177361 44.39240857 -31.74865619 38.09124918 -35.921875 31.5859375 C-42.73822346 25.21413351 -49.51021565 24.31619276 -58.55322266 24.42578125 C-64.32649216 24.66105956 -68.93845648 25.61849251 -73.796875 28.8984375 C-74.42851563 29.3109375 -75.06015625 29.7234375 -75.7109375 30.1484375 C-83.41779567 35.92038234 -86.24701075 44.74057868 -87.796875 53.8984375 C-88.07403272 57.33155437 -88.1075676 60.74844687 -88.11572266 64.19165039 C-88.13079109 65.67128769 -88.13079109 65.67128769 -88.14616394 67.18081665 C-88.1768237 70.41090359 -88.19398302 73.64090832 -88.2109375 76.87109375 C-88.229663 79.12268269 -88.24923743 81.37426471 -88.2696228 83.62583923 C-88.32080396 89.5292451 -88.36050456 95.43267369 -88.39776611 101.33618164 C-88.44495888 108.43158359 -88.50649639 115.52687405 -88.56561279 122.62218475 C-88.65365403 133.38089032 -88.72354106 144.13957637 -88.796875 154.8984375 C-103.316875 154.8984375 -117.836875 154.8984375 -132.796875 154.8984375 C-132.796875 100.7784375 -132.796875 46.6584375 -132.796875 -9.1015625 C-118.936875 -9.1015625 -105.076875 -9.1015625 -90.796875 -9.1015625 C-90.301875 1.2934375 -90.301875 1.2934375 -89.796875 11.8984375 C-88.78625 10.5578125 -87.775625 9.2171875 -86.734375 7.8359375 C-65.83450636 -18.72604695 -26.44366997 -19.86968498 0 0 Z " fill="#A71920" transform="translate(1805.796875,316.1015625)"/>
<path d="M0 0 C14.85 0 29.7 0 45 0 C45.01458252 3.2798584 45.02916504 6.5597168 45.04418945 9.93896484 C45.09460635 20.79558244 45.16121413 31.65205769 45.23571491 42.50853539 C45.2803746 49.08852276 45.31964067 55.66844885 45.34643555 62.24853516 C45.37251206 68.60288676 45.41294584 74.95700194 45.46318626 81.31120682 C45.47982547 83.73115719 45.49135803 86.15114843 45.49761391 88.57114792 C45.50728678 91.97004523 45.53538536 95.36834171 45.56762695 98.76708984 C45.56619186 99.75971832 45.56475677 100.7523468 45.5632782 101.77505493 C45.68154548 110.63512683 47.01733915 118.99553228 53.33984375 125.59765625 C59.19785975 130.54595683 66.53080758 131.27781466 73.890625 130.8203125 C82.15631557 129.78180266 89.10980942 127.22739527 94.84765625 120.9921875 C102.59359846 110.37244363 103.11910586 97.03154907 103.20532227 84.34936523 C103.21522186 83.43121536 103.22512146 82.51306549 103.23532104 81.5670929 C103.26664118 78.56428512 103.29157552 75.56146159 103.31640625 72.55859375 C103.33700131 70.46394972 103.35799842 68.36930961 103.37937927 66.27467346 C103.43433649 60.78554474 103.48386101 55.29638017 103.53222656 49.80718994 C103.59151181 43.20824041 103.65759354 36.60935581 103.72252655 30.0104599 C103.82020409 20.00701322 103.90928698 10.00352317 104 0 C118.52 0 133.04 0 148 0 C148 54.12 148 108.24 148 164 C133.81 164 119.62 164 105 164 C104.67 157.73 104.34 151.46 104 145 C102.5459375 146.7634375 102.5459375 146.7634375 101.0625 148.5625 C91.83801458 159.04655371 80.13211408 166.23154157 66.03271484 167.20483398 C62.74847966 167.30401213 59.47315498 167.32203469 56.1875 167.3125 C54.53911133 167.33666992 54.53911133 167.33666992 52.85742188 167.36132812 C39.43432117 167.36923803 25.79055844 164.17321413 15.65625 154.8515625 C1.9847935 139.56790595 -0.18332142 120.21670854 -0.11352539 100.58349609 C-0.11367142 99.48963593 -0.11381744 98.39577576 -0.1139679 97.26876831 C-0.11327645 93.68697054 -0.10552031 90.10522609 -0.09765625 86.5234375 C-0.09578934 84.02666248 -0.09436672 81.52988709 -0.09336853 79.03311157 C-0.08956487 72.48686701 -0.07975309 65.94064491 -0.06866455 59.39440918 C-0.05785748 52.70435014 -0.05386099 46.01428408 -0.04882812 39.32421875 C-0.03812877 26.21613442 -0.02054953 13.1080726 0 0 Z " fill="#A71921" transform="translate(1511,307)"/>
<path d="M0 0 C0 14.85 0 29.7 0 45 C-5.94 45 -11.88 45 -18 45 C-29.05465253 46.72162621 -37.53242382 48.9897142 -44.68359375 57.9140625 C-50.28983221 66.79753828 -51.13318836 76.82436237 -51.20532227 87.05639648 C-51.21522186 87.93524002 -51.22512146 88.81408356 -51.23532104 89.71955872 C-51.26672473 92.60337701 -51.29160928 95.48721173 -51.31640625 98.37109375 C-51.33699406 100.37891551 -51.35799099 102.38673312 -51.37937927 104.39454651 C-51.43441133 109.6634076 -51.48390336 114.93230658 -51.53222656 120.20123291 C-51.59144245 126.53148262 -51.65756603 132.86166352 -51.72252655 139.19185638 C-51.82029849 148.79452868 -51.90931697 158.39724636 -52 168 C-66.52 168 -81.04 168 -96 168 C-96 113.88 -96 59.76 -96 4 C-82.14 4 -68.28 4 -54 4 C-53.505 15.88 -53.505 15.88 -53 28 C-51.80375 26.329375 -50.6075 24.65875 -49.375 22.9375 C-47.92117879 20.95501653 -46.46306486 18.97567153 -45 17 C-44.49984375 16.31421875 -43.9996875 15.6284375 -43.484375 14.921875 C-32.72843103 1.19877407 -16.19997812 0 0 0 Z " fill="#FFFFFF" transform="translate(840,303)"/>
</svg>
